<svg width="300" height="300" viewBox="0 0 300 300" fill="none" xmlns="http://www.w3.org/2000/svg">
<path fill-rule="evenodd" clip-rule="evenodd" d="M37.1485 101.617L85.7561 84.4612C75.7204 97.9729 67.0987 112.484 60.0293 127.767L37.1485 101.617ZM3.37426 104.434L48.4076 155.9L41.8847 172.208C39.8588 177.272 41.0462 183.057 44.9033 186.915L49.18 191.191C25.9561 217.378 13.1281 244.767 0.700171 282.051C-0.933204 286.951 0.342081 292.354 3.9943 296.005C7.64666 299.657 13.0488 300.934 17.9489 299.3C55.2326 286.872 82.6215 274.044 108.809 250.82L113.085 255.096C116.942 258.954 122.727 260.14 127.792 258.115L144.1 251.592L195.566 296.626C198.97 299.604 203.628 300.7 208.002 299.554C212.378 298.407 215.899 295.167 217.405 290.901L258.124 175.53C284.969 143.765 300 103.292 300 61.1014V13.6363C300 6.10526 293.895 0 286.364 0H238.898C196.707 0 156.235 15.0307 124.47 41.8758L9.09825 82.5954C4.83362 84.1006 1.59254 87.6223 0.445991 91.997C-0.700703 96.3718 0.396217 101.03 3.37426 104.434ZM36.6176 263.382C45.1744 242.716 54.7776 226.266 68.5034 210.515L89.4852 231.496C73.7339 245.222 57.2843 254.825 36.6176 263.382ZM126.011 229.453L118.734 222.175L77.8245 181.266L70.5462 173.989L80.2267 149.787C89.1091 127.582 101.582 106.986 117.147 88.8272L125.01 79.6538C153.507 46.407 195.109 27.2727 238.898 27.2727H272.727V61.1014C272.727 104.89 253.593 146.492 220.346 174.99L211.173 182.852C193.013 198.417 172.418 210.89 150.213 219.773L126.011 229.453ZM198.383 262.851L172.233 239.971C187.516 232.902 202.027 224.28 215.539 214.243L198.383 262.851ZM190.909 95.4544C190.909 87.9233 197.014 81.818 204.546 81.818C212.077 81.818 218.182 87.9233 218.182 95.4544C218.182 102.985 212.077 109.091 204.546 109.091C197.014 109.091 190.909 102.985 190.909 95.4544ZM204.546 54.5453C181.951 54.5453 163.637 72.861 163.637 95.4544C163.637 118.048 181.951 136.363 204.546 136.363C227.14 136.363 245.455 118.048 245.455 95.4544C245.455 72.861 227.14 54.5453 204.546 54.5453Z" fill="#5E84A1"/>
</svg>
