<svg width="300" height="300" viewBox="0 0 300 300" fill="none" xmlns="http://www.w3.org/2000/svg">
<path d="M215.324 300C212.293 300 209.399 298.274 208.014 295.354L155.424 184.348C151.566 189.706 148.057 194.336 143.081 197.698C112.778 218.149 98.5305 235.098 109.998 266.036C111.53 270.159 110.168 273.979 109.342 276.261L109.026 277.185C108.377 279.599 106.586 281.905 104.301 282.887L84.1693 291.55C81.8109 292.556 79.1203 292.401 76.9078 291.084C74.6952 289.791 73.2202 287.501 72.9285 284.94C69.5003 254.51 50.7871 238.747 12.2504 233.838C9.68125 233.503 7.412 231.957 6.16391 229.658C4.91582 227.368 4.82668 224.603 5.93699 222.239L17.1211 198.222C18.5799 195.089 21.8622 193.273 25.2337 193.559L68.6655 197.78L111.96 137.696L4.46197 83.028C1.64162 81.5964 -0.100835 78.6352 0.00452345 75.4449L0.288178 66.8557C0.409745 63.2564 2.84108 60.1643 6.28548 59.2235C9.30034 58.4055 12.299 57.3994 15.3057 56.3932C22.8834 53.8573 30.7123 51.2478 39.1167 51.1088C47.1644 50.9206 55.3175 52.9575 62.96 54.8635C66.8015 55.8288 70.6511 56.794 74.5088 57.4484C99.5921 61.6776 124.692 65.7923 149.2 69.8006L177.241 74.406L198.183 55.8697C216.24 39.8692 233.632 24.4413 251.194 9.19335C259.323 2.142 267.476 -0.860136 275.443 0.211473C284.058 1.3976 291.644 7.10739 298.63 17.6681C300.064 19.8358 300.396 22.5516 299.513 24.9975C289.861 51.8859 269.899 67.8946 250.586 83.3797C239.175 92.5334 228.34 101.229 220.097 111.765C220.349 112.812 220.6 113.835 220.835 114.841C221.945 119.438 222.991 123.782 223.655 128.305C225.657 141.926 227.529 155.57 229.401 169.207C233.21 196.962 237.141 225.65 242.158 253.569L242.96 257.97C247.847 284.597 245.537 288.474 218.322 299.386C217.334 299.82 216.321 300 215.324 300ZM156.98 160.486C157.304 160.486 157.62 160.503 157.944 160.544C160.7 160.871 163.099 162.613 164.29 165.141L219.352 281.365C224.101 279.361 227.959 277.513 228.704 276.261C229.547 274.846 228.259 267.811 227.01 260.997L226.192 256.53C221.119 228.268 217.164 199.416 213.33 171.489C211.466 157.901 209.602 144.314 207.608 130.743C207.057 126.956 206.133 123.144 205.072 118.726C204.537 116.501 203.969 114.17 203.435 111.708C202.924 109.434 203.41 107.045 204.756 105.147C214.53 91.4209 227.724 80.8357 240.488 70.594C257.743 56.7613 274.089 43.6484 282.704 23.4024C280.03 20.0321 276.683 16.9155 273.23 16.4328C270.069 15.9911 266.196 17.7335 261.746 21.6027C244.224 36.8098 226.865 52.1967 208.856 68.1645L185.046 89.2531C183.222 90.8646 180.791 91.5599 178.4 91.1673L146.59 85.9483C122.058 81.9318 96.9258 77.8172 71.8181 73.588C67.5552 72.8681 63.2923 71.8129 59.0455 70.7495C52.1 69.0153 45.4787 67.2238 39.3517 67.4692C33.4435 67.5592 27.1058 69.6779 20.3953 71.9192C20.0469 72.0419 19.6984 72.1565 19.3418 72.271L126.572 126.792C129.765 128.412 131.426 131.872 130.956 135.25C131.24 137.279 130.77 139.414 129.481 141.197L79.0554 211.179C77.3697 213.511 74.598 214.77 71.7209 214.509L29.367 210.394L25.1932 219.359C60.0586 226.28 80.4737 243.736 87.2247 272.441L94.0244 269.521C79.0149 225.814 106.765 202.533 134.069 184.103C137.051 182.09 139.798 178.254 143.275 173.395C145.431 170.376 147.814 167.055 150.707 163.489C152.247 161.574 154.565 160.486 156.98 160.486Z" fill="#5E84A1"/>
<path d="M82.208 71.4853C80.036 71.4853 77.864 70.61 76.2674 68.8758C73.2282 65.5628 73.4146 60.3848 76.6888 57.309L108.369 27.623C111.643 24.5554 116.773 24.7354 119.821 28.0566C122.868 31.3695 122.674 36.5476 119.391 39.6152L87.719 69.3012C86.1629 70.7655 84.1773 71.4853 82.208 71.4853Z" fill="#5E84A1"/>
<path d="M233.794 222.207C231.719 222.207 229.644 221.405 228.064 219.818C224.895 216.62 224.895 211.45 228.064 208.243L257.475 178.557C260.644 175.359 265.766 175.359 268.935 178.549C272.103 181.748 272.103 186.918 268.935 190.124L239.523 219.81C237.943 221.405 235.868 222.207 233.794 222.207Z" fill="#5E84A1"/>
<path d="M225.122 163.636C223.048 163.636 220.973 162.834 219.393 161.239C216.224 158.048 216.224 152.87 219.393 149.664L248.804 119.978C251.973 116.779 257.095 116.779 260.263 119.97C263.432 123.168 263.432 128.338 260.263 131.545L230.852 161.231C229.272 162.834 227.197 163.636 225.122 163.636Z" fill="#5E84A1"/>
<path d="M138.761 80.6311C136.953 80.6311 135.138 80.0258 133.631 78.7824C130.162 75.9193 129.659 70.7658 132.488 67.2728L152.854 42.1432C155.691 38.6502 160.789 38.1431 164.265 40.9898C167.726 43.8529 168.237 49.0064 165.408 52.4993L145.042 77.629C143.437 79.6086 141.111 80.6311 138.761 80.6311Z" fill="#5E84A1"/>
</svg>
