<svg width="52" height="41" viewBox="0 0 52 41" fill="none" xmlns="http://www.w3.org/2000/svg">
<path d="M20.7875 1.96249L17.325 5.51249H3.8625C2.62675 5.51249 1.625 6.51424 1.625 7.74999V36.775C1.625 38.0127 2.62475 39.0181 3.8625 39.025H48.1375C49.3752 39.0181 50.375 38.0127 50.375 36.775V7.74999C50.375 6.51424 49.3732 5.51249 48.1375 5.51249H34.675L31.2125 1.96249H20.7875ZM44.4328 8.93749C45.8884 8.93749 47.0685 10.0567 47.0685 11.4375C47.0685 12.8182 45.8885 13.9375 44.4328 13.9375C42.9848 13.7959 41.9334 12.5546 42.0826 11.1811C42.2106 10.0032 43.1924 9.07199 44.4328 8.93749Z" stroke="white" stroke-width="2" stroke-linecap="round" stroke-linejoin="round"/>
<path d="M26 34.4125C31.8728 34.4125 36.6336 29.6517 36.6336 23.7789C36.6336 17.9061 31.8728 13.1453 26 13.1453C20.1272 13.1453 15.3664 17.9061 15.3664 23.7789C15.3664 29.6517 20.1272 34.4125 26 34.4125Z" stroke="#FFFF00" stroke-width="1.25" stroke-linecap="round" stroke-linejoin="round"/>
<path d="M29.0679 18.4654H22.9321L19.8643 23.7789L22.9321 29.0924H29.0679L32.1357 23.7789L29.0679 18.4654Z" stroke="#FFFF00" stroke-width="1.25" stroke-linecap="round" stroke-linejoin="round"/>
<path d="M32.1357 23.7789L35.2116 29.1065" stroke="#FFFF00" stroke-width="1.25" stroke-linecap="round" stroke-linejoin="round"/>
<path d="M16.7965 18.4654L19.8643 23.7789" stroke="#FFFF00" stroke-width="1.25" stroke-linecap="round" stroke-linejoin="round"/>
<path d="M26 13.1454L22.9321 18.4653" stroke="#FFFF00" stroke-width="1.25" stroke-linecap="round" stroke-linejoin="round"/>
<path d="M29.0679 29.0927L26 34.4125" stroke="#FFFF00" stroke-width="1.25" stroke-linecap="round" stroke-linejoin="round"/>
<path d="M22.9321 29.0927H16.788" stroke="#FFFF00" stroke-width="1.25" stroke-linecap="round" stroke-linejoin="round"/>
<path d="M29.0679 18.4653H35.2116" stroke="#FFFF00" stroke-width="1.25" stroke-linecap="round" stroke-linejoin="round"/>
</svg>
