<svg width="82" height="82" viewBox="0 0 82 82" fill="none" xmlns="http://www.w3.org/2000/svg">
<path d="M3.41669 75.1667C3.41669 73.2796 4.9464 71.75 6.83335 71.75H75.1667C77.0537 71.75 78.5834 73.2796 78.5834 75.1667C78.5834 77.0537 77.0537 78.5833 75.1667 78.5833H6.83335C4.9464 78.5833 3.41669 77.0537 3.41669 75.1667Z" fill="#FFFF00"/>
<path d="M61.1299 7.83301L61.1299 7.83309L63.4245 10.1276C66.6465 13.3495 66.6464 18.573 63.4246 21.7948L63.4245 21.7949L26.9553 58.2643C25.8459 59.3736 24.443 60.1437 22.9112 60.4842C22.9112 60.4842 22.9112 60.4842 22.9111 60.4842L14.72 62.3045C11.2665 63.0718 8.18577 59.991 8.9532 56.5376L10.7735 48.3465L10.7735 48.3465C11.1139 46.8147 11.8839 45.4119 12.9935 44.3022L49.4628 7.83307C52.6847 4.61119 57.9083 4.61128 61.1299 7.83301ZM61.4211 12.1311L61.4211 12.1311L59.1265 9.83655C59.1265 9.83653 59.1265 9.83651 59.1264 9.83649C57.0112 7.72119 53.5814 7.72119 51.4662 9.83651C51.4662 9.83652 51.4662 9.83654 51.4662 9.83655L44.9007 16.4019L43.4865 17.8162L44.9007 19.2304L52.0272 26.3568L53.4414 27.771L54.8556 26.3568L61.4211 19.7914L61.4211 19.7914C63.5364 17.676 63.5364 14.2464 61.4211 12.1311ZM42.8973 21.2338L41.4831 19.8196L40.0689 21.2338L14.9973 46.3056C14.9971 46.3058 14.997 46.3059 14.9969 46.3061C14.2681 47.0345 13.7628 47.9559 13.5394 48.9608L13.5393 48.9609L11.7191 57.1524L11.0373 60.2204L14.1053 59.5386L22.296 57.7183C22.2962 57.7183 22.2964 57.7182 22.2966 57.7182C23.3028 57.4948 24.2237 56.9887 24.9517 56.2606C24.9518 56.2606 24.9518 56.2606 24.9519 56.2605L50.0238 31.1887L51.438 29.7745L50.0238 28.3603L42.8973 21.2338Z" stroke="white" stroke-width="4"/>
</svg>
