<svg width="80" height="80" viewBox="0 0 80 80" fill="none" xmlns="http://www.w3.org/2000/svg">
<path d="M70 77.5H12.5C9.73875 77.5 7.5 75.2613 7.5 72.5C7.5 69.7387 9.73875 67.5 12.5 67.5H70V77.5Z" fill="#F9EBB2"/>
<path d="M7.5 5V66.9212C8.8275 65.73 10.5762 65 12.5 65H15V2.5H10C8.62 2.5 7.5 3.62 7.5 5Z" fill="#45AAB8"/>
<path d="M70 2.5H17.5V65H70H72.5V62.5V5C72.5 3.62 71.38 2.5 70 2.5Z" fill="#FFFF00"/>
<path d="M75 65V5C75 2.23625 72.7638 0 70 0H10C7.23625 0 5 2.23625 5 5V72.5C5 76.6413 8.35875 80 12.5 80H73.75C74.4413 80 75 79.4413 75 78.75C75 78.0588 74.4413 77.5 73.75 77.5H72.5V67.5C73.88 67.5 75 66.38 75 65ZM7.5 5C7.5 3.62 8.62 2.5 10 2.5H15V65H12.5C10.5763 65 8.8275 65.73 7.5 66.9213V5ZM70 77.5H12.5C9.73875 77.5 7.5 75.2613 7.5 72.5C7.5 69.7388 9.73875 67.5 12.5 67.5H70V77.5ZM70 65H17.5V2.5H70C71.38 2.5 72.5 3.62 72.5 5V62.5V65H70Z" fill="#394240"/>
<path d="M53.75 32.5H28.75C28.0588 32.5 27.5 33.0588 27.5 33.75C27.5 34.4412 28.0588 35 28.75 35H53.75C54.4412 35 55 34.4412 55 33.75C55 33.0588 54.4412 32.5 53.75 32.5Z" fill="#394240"/>
<path d="M61.25 25H28.75C28.0588 25 27.5 25.5588 27.5 26.25C27.5 26.9412 28.0588 27.5 28.75 27.5H61.25C61.9412 27.5 62.5 26.9412 62.5 26.25C62.5 25.5588 61.9412 25 61.25 25Z" fill="#394240"/>
<path d="M28.75 20H43.75C44.4412 20 45 19.4412 45 18.75C45 18.0588 44.4412 17.5 43.75 17.5H28.75C28.0588 17.5 27.5 18.0588 27.5 18.75C27.5 19.4412 28.0588 20 28.75 20Z" fill="#394240"/>
<path d="M7.5 5V66.9212C8.8275 65.73 10.5762 65 12.5 65H15V2.5H10C8.62 2.5 7.5 3.62 7.5 5Z" fill="white"/>
</svg>
