<svg width="82" height="107" viewBox="0 0 82 107" fill="none" xmlns="http://www.w3.org/2000/svg">
<path d="M64.1739 0H17.8261V7.13043H64.1739V0Z" fill="#111918"/>
<path d="M73.4363 42.7755C65.3077 36.0016 60.6087 25.9691 60.6087 15.3875V10.6957H21.3913V15.3875C21.3913 25.9691 16.6923 36.0016 8.56365 42.7755L0 49.9131L39.2174 106.957V67.5609C35.1495 66.7338 32.087 63.14 32.087 58.8261C32.087 53.9025 36.0764 49.9131 41 49.9131C45.9236 49.9131 49.913 53.9025 49.913 58.8261C49.913 63.1365 46.8505 66.7338 42.7826 67.5609V106.957L82 49.9131L73.4363 42.7755Z" fill="#111918"/>
<path d="M64.1739 0H17.8261V7.13043H64.1739V0Z" fill="#FFFF00"/>
<path d="M73.4363 42.7755C65.3077 36.0016 60.6087 25.9691 60.6087 15.3875V10.6957H21.3913V15.3875C21.3913 25.9691 16.6923 36.0016 8.56365 42.7755L0 49.9131L39.2174 106.957V67.5609C35.1495 66.7338 32.087 63.14 32.087 58.8261C32.087 53.9025 36.0764 49.9131 41 49.9131C45.9236 49.9131 49.913 53.9025 49.913 58.8261C49.913 63.1365 46.8505 66.7338 42.7826 67.5609V106.957L82 49.9131L73.4363 42.7755Z" fill="white"/>
</svg>
