<svg width="82" height="82" viewBox="0 0 82 82" fill="none" xmlns="http://www.w3.org/2000/svg">
<path d="M46.5965 10.5764L45.7477 11.5127L46.854 12.1235C49.8703 13.7888 51.7654 16.6728 51.7657 19.8859C51.7657 19.8859 51.7657 19.8859 51.7657 19.886V28.3413C51.7657 29.0294 51.1489 29.7453 50.1767 29.7453H32.0615C31.569 29.7453 31.0885 29.5561 30.739 29.2614C30.3866 28.9643 30.235 28.6242 30.235 28.3413V19.8859C30.235 16.6928 32.2265 13.8002 35.2624 12.1234L36.368 11.5128L35.5201 10.5767C34.6174 9.58022 34.1372 8.32847 34.1372 6.94982C34.1372 3.79395 37.1292 1 41.1082 1C45.0863 1 48.074 3.79314 48.074 6.94982C48.074 8.28918 47.5273 9.54956 46.5965 10.5764Z" stroke="#FFFF00" stroke-width="2"/>
<path d="M17.0972 20.9212L16.2485 21.8575L17.3548 22.4682C20.3553 24.1248 22.1742 27.0016 22.1742 30.2306V38.6861C22.1742 39.0852 22.0332 39.4018 21.8183 39.6167C21.6066 39.8283 21.268 39.9964 20.7687 39.9966C20.7687 39.9966 20.7686 39.9966 20.7685 39.9966H2.65358C1.59412 39.9966 1 39.2951 1 38.6864V30.2309C1 27.0222 2.91508 24.1365 5.93535 22.4685L7.04104 21.8579L6.19303 20.9217C5.26331 19.8954 4.71815 18.6354 4.71815 17.2949C4.71815 14.1372 7.70084 11.3447 11.6778 11.3447C15.652 11.3447 18.6207 14.1344 18.6207 17.2946C18.6207 18.6162 18.0421 19.8789 17.0972 20.9212Z" stroke="#FFFF00" stroke-width="2"/>
<path d="M75.9275 20.9217L75.0795 21.8579L76.1852 22.4685C79.1844 24.1247 81 27.0009 81 30.2309V38.6864C81 39.0885 80.8593 39.4052 80.6468 39.6189C80.438 39.8288 80.1028 39.9966 79.6039 39.9966H61.4887C60.4242 39.9966 59.8259 39.291 59.8259 38.6864V30.2309C59.8259 27.0229 61.7445 24.1369 64.7655 22.4685L65.8714 21.8577L65.0231 20.9216C64.0944 19.8968 63.5522 18.6371 63.5522 17.2949C63.5522 14.1372 66.5346 11.345 70.5115 11.345C74.4855 11.345 77.4534 14.1346 77.4534 17.2949C77.4534 18.6155 76.8727 19.8783 75.9275 20.9217Z" stroke="#FFFF00" stroke-width="2"/>
<path d="M46.5965 61.91L45.7479 62.8461L46.8539 63.457C49.8704 65.123 51.7654 68.0065 51.7657 71.2197C51.7657 71.2198 51.7657 71.2198 51.7657 71.2198V79.6752C51.7657 80.3216 51.1938 81 50.1767 81H32.0615C31.5495 81 31.0646 80.8175 30.7216 80.5413C30.3788 80.2653 30.235 79.9502 30.235 79.6752V71.2197C30.235 68.0266 32.2265 65.1341 35.2624 63.4573L36.368 62.8466L35.5201 61.9106C34.6174 60.9141 34.1372 59.6621 34.1372 58.2837C34.1372 55.1278 37.1292 52.3339 41.1082 52.3339C45.0863 52.3339 48.074 55.127 48.074 58.2837C48.074 59.623 47.5274 60.8831 46.5965 61.91ZM47.4176 78.3405H48.4176V77.3405V71.2197C48.4176 67.4691 44.9314 64.6575 41.0006 64.6575C37.0691 64.6575 33.5828 67.469 33.5828 71.2197V77.3405V78.3405H34.5828H47.4176ZM44.7476 58.2837C44.7476 56.3437 42.9866 54.9934 41.1189 54.9934C39.2508 54.9934 37.4903 56.3438 37.4903 58.2837C37.4903 60.2236 39.2512 61.574 41.1189 61.574C42.9866 61.574 44.7476 60.224 44.7476 58.2837Z" stroke="white" stroke-width="2"/>
<path d="M42.4958 35.3194V43.0399C42.4958 43.6493 41.8802 44.3697 40.8219 44.3697C39.7633 44.3697 39.148 43.6496 39.148 43.0399V35.3194C39.148 34.7097 39.7633 33.9897 40.8219 33.9897C41.8805 33.9897 42.4958 34.7097 42.4958 35.3194Z" stroke="white" stroke-width="2"/>
<path d="M14.4601 44.3151C13.7682 43.745 12.6377 43.7773 11.9929 44.3696C11.4307 44.8872 11.4444 45.6516 12.0554 46.1562C12.0555 46.1562 12.0555 46.1563 12.0556 46.1563L25.4991 57.2478C25.4992 57.2478 25.4993 57.2479 25.4994 57.248C25.8194 57.5117 26.2488 57.6574 26.7012 57.6574C27.1884 57.6574 27.6455 57.4884 27.966 57.1937L14.4601 44.3151ZM14.4601 44.3151C14.4601 44.3152 14.4602 44.3152 14.4602 44.3152M14.4601 44.3151L14.4602 44.3152M14.4602 44.3152C14.4603 44.3153 14.4603 44.3153 14.4604 44.3154M14.4602 44.3152L14.4604 44.3154M14.4604 44.3154L27.9035 55.4068L14.4604 44.3154ZM27.9037 55.407C28.5147 55.9115 28.5285 56.676 27.9662 57.1935L27.9037 55.407Z" stroke="white" stroke-width="2"/>
<path d="M54.3472 55.398L54.3473 55.3979L67.7545 44.2808C67.7546 44.2807 67.7546 44.2807 67.7546 44.2806C68.4442 43.7092 69.5757 43.7388 70.2209 44.3301L70.2213 44.3304C70.7859 44.8474 70.7733 45.6117 70.1646 46.1163L70.1645 46.1164L56.7572 57.2337L56.7571 57.2337C56.4377 57.4986 56.0067 57.6456 55.5526 57.6456C55.0662 57.6456 54.611 57.4779 54.2908 57.1845L54.2906 57.1842C53.7258 56.6672 53.7385 55.9026 54.3472 55.398Z" stroke="white" stroke-width="2"/>
</svg>
