<svg width="82" height="82" viewBox="0 0 82 82" fill="none" xmlns="http://www.w3.org/2000/svg">
<g clip-path="url(#clip0_21_195)">
<path d="M61.4981 17.7414C61.4981 18.9402 62.698 20.139 64.3753 20.139C66.7718 20.139 67.4911 19.18 67.4911 17.7414C67.4911 17.5016 67.4911 17.5016 67.4911 17.2629C67.2524 16.5436 66.5321 16.0641 65.8149 15.5846C65.5741 15.5846 65.0956 15.3448 64.6172 15.3448C62.9367 15.3459 61.4981 16.3039 61.4981 17.7414Z" fill="white"/>
<path d="M66.5342 9.82921C66.2923 8.39063 65.3343 7.19182 64.1366 7.19182C62.9367 7.19182 62.2174 8.39063 62.4593 9.82921C62.7012 11.2678 63.6571 12.4666 64.8559 12.4666C65.8149 12.4666 66.7729 11.2678 66.5342 9.82921Z" fill="white"/>
<path d="M55.7449 27.8114L59.8208 23.7355C62.2174 25.6536 65.0978 26.8524 68.2136 26.8524C75.6452 26.8524 81.6403 20.8572 81.6403 13.4257C81.6382 5.993 75.6452 0 68.2125 0C60.782 0 54.7858 5.99407 54.7858 13.4267C54.7858 16.7834 55.9836 19.6595 57.9027 21.8184L53.8257 25.8955C54.545 26.6137 55.2643 27.334 55.7449 27.8114ZM70.3704 9.10992H73.0067V6.4736H73.9658V9.11099H76.6042V10.07H73.9658V12.7085H73.0067V10.069H70.3704V9.10992ZM64.3763 13.6654C64.3763 13.4257 64.3763 13.1859 64.6182 12.9461C64.3763 12.9461 64.3763 12.9461 64.1398 12.9461C62.2206 12.9461 60.782 11.5076 60.782 9.82921C60.782 8.15087 62.6991 6.71229 64.6182 6.71229H68.9318L67.9728 7.43158H66.5342C67.4932 7.67242 67.9728 8.87123 67.9728 10.069C67.9728 11.028 67.4932 11.7473 66.7729 12.4666C66.0536 12.9461 65.8138 13.1859 65.8138 13.6654C65.8138 14.1449 66.5342 14.8642 67.0126 15.104C68.2104 15.8233 68.4512 16.7823 68.4512 17.9812C68.4512 19.6584 67.0126 21.0981 64.1366 21.0981C61.74 21.0981 59.5811 20.139 59.5811 18.4607C59.5811 16.7823 61.4981 15.3438 63.8957 15.3438C64.1366 15.3438 64.3742 15.3438 64.615 15.3438C64.615 14.6255 64.3763 14.146 64.3763 13.6654Z" fill="white"/>
<path d="M68.2125 55.1455C65.0967 55.1455 61.9798 56.3432 59.8198 58.2624L55.7449 54.1854C55.2643 54.9046 54.545 55.382 54.0665 55.8616L58.1436 59.9386C56.2255 62.3341 55.0266 65.2145 55.0266 68.3314C55.0266 75.763 61.0229 81.7581 68.4544 81.7581C75.885 81.7581 81.8822 75.763 81.8822 68.3314C81.6382 60.8987 75.6452 55.1455 68.2125 55.1455ZM64.3763 74.5663H61.7389V66.1735H64.3763V74.5663ZM63.1775 64.9768C62.2185 64.9768 61.5002 64.2565 61.5002 63.5361C61.5002 62.8168 62.2195 62.0975 63.1775 62.0975C64.1355 62.0975 64.8548 62.8168 64.8548 63.5361C64.615 64.4962 64.1366 64.9768 63.1775 64.9768ZM75.1657 74.5663H72.0487V70.2516C72.0487 69.0539 71.5703 68.3335 70.6091 68.3335C69.8898 68.3335 69.4114 68.813 69.1705 69.2926C69.1705 69.5355 69.1705 69.7732 69.1705 70.0129V74.5695H66.2934C66.2934 74.5695 66.2934 66.8971 66.2934 66.1767H69.1705V67.3755C69.4114 66.8971 70.3704 65.937 71.809 65.937C73.726 65.937 75.1657 67.1347 75.1657 69.7732V74.5663Z" fill="white"/>
<path d="M26.0143 54.1875L21.9383 58.2645C19.5407 56.3454 16.6635 55.1476 13.5466 55.1476C6.11395 55.1476 0.119873 61.1438 0.119873 68.5733C0.119873 76.0059 6.11395 82.0011 13.5466 82.0011C20.9782 82.0011 26.9733 76.0059 26.9733 68.5733C26.9733 65.4564 25.7745 62.3405 23.8564 60.1816L27.9324 56.1045C27.2131 55.3842 26.4938 54.6638 26.0143 54.1875ZM19.302 66.4143C19.302 70.4903 16.1851 75.0447 10.6705 75.0447C8.99324 75.0447 7.31383 74.5652 6.11502 73.604C6.35478 73.604 6.59454 73.604 6.83431 73.604C8.27288 73.604 9.4717 73.1256 10.6705 72.4063C9.4717 72.4063 8.27288 71.4472 7.79336 70.2473C8.03312 70.2473 8.27181 70.2473 8.27181 70.2473C8.51265 70.2473 8.75134 70.2473 8.99217 70.2473C7.55252 70.0054 6.59454 68.8088 6.59454 67.3702C7.07407 67.611 7.5536 67.8486 8.03312 67.8486C7.31383 67.3702 6.59454 66.4101 6.59454 65.451C6.59454 64.9736 6.83431 64.492 7.07407 64.0124C8.51265 65.9316 10.6694 67.1293 13.3068 67.1293C13.3068 66.8874 13.3068 66.6509 13.3068 66.4101C13.3068 64.7317 14.7465 63.2931 16.4238 63.2931C17.3828 63.2931 18.1021 63.7716 18.5827 64.2522C19.302 64.0114 20.0213 63.7727 20.5008 63.5329C20.26 64.2522 19.7804 64.7306 19.0611 65.2091C19.7804 65.2091 20.26 64.9683 20.7395 64.7306C20.26 65.4499 19.7804 65.9284 19.3009 66.1692C19.302 66.1735 19.302 66.1735 19.302 66.4143Z" fill="white"/>
<path d="M13.5466 26.8535C16.6635 26.8535 19.7794 25.6546 21.9383 23.7365L26.0143 27.8125C26.4938 27.0932 27.2131 26.6148 27.6926 26.1352L23.6156 22.0593C25.5337 19.6616 26.7325 16.7845 26.7325 13.6676C26.7325 6.23491 20.7384 0.240837 13.3058 0.240837C5.87418 0.240837 0.119873 6.23491 0.119873 13.6676C0.119873 20.8583 6.11395 26.8535 13.5466 26.8535ZM10.4297 11.2678H11.8683V9.82921C11.8683 7.91111 12.5875 6.7123 14.9852 6.7123H16.9033V9.10992H15.7045C14.7454 9.10992 14.7454 9.34969 14.7454 10.069V11.2678H16.9033L16.6635 13.6654H14.5035V20.3788H11.6264V13.6654H10.1888V11.2678H10.4297Z" fill="white"/>
<path d="M53.1085 47.7118C52.8666 47.2344 52.3882 46.9914 52.1495 46.9914C49.9916 46.2721 48.0746 45.7947 45.9167 45.0744C45.677 45.0744 45.1974 44.5959 45.1974 43.6358C45.1974 43.1552 45.1974 42.9154 44.719 42.9154C44.4771 42.9154 44.719 42.9154 44.4771 42.6757C44.2384 41.7166 44.2384 41.236 44.2384 40.9973C44.2384 40.7586 44.4771 40.7565 44.4771 40.5178C45.1974 39.5587 45.4361 38.1212 45.4361 37.6406C45.4361 37.6406 45.677 37.6406 45.677 37.3998C45.9167 36.9203 45.9167 36.9203 45.9167 36.1999C46.1586 35.7225 46.1586 35.0033 45.677 35.0033C45.4361 35.243 45.4361 35.0033 45.4361 34.5237V31.6466C45.4361 30.6875 44.7158 29.9693 44.2384 29.7295C43.517 29.2489 43.2793 29.0092 43.0385 29.0092C42.7977 28.7694 42.7977 28.5297 43.0385 28.2899C43.2783 28.0512 43.517 28.0512 43.517 27.8104C43.517 27.8104 43.517 27.8104 43.2761 27.8104C43.0353 27.8104 41.5989 28.0523 40.8796 28.2899C39.6807 28.5297 38.4819 29.0092 37.5218 29.7295C36.8025 30.208 36.323 30.9273 36.323 31.8885C36.323 32.3659 36.323 33.8055 36.323 34.7656C36.323 35.0075 36.323 35.2452 36.0832 35.0075C35.3639 35.0075 35.8435 35.9666 35.8435 36.2042C35.8435 36.6837 36.0832 36.9246 36.3219 37.4041C36.3219 37.6449 36.5628 37.6449 36.5628 37.6449C36.8025 38.3642 37.0423 39.8028 37.5218 40.5221C37.5218 40.5221 37.7626 40.7629 37.7626 41.0016C37.7626 41.4811 37.7626 42.2004 37.5218 42.6799C37.5218 42.6799 37.5218 42.9208 37.282 42.9208C36.8025 42.9208 36.8025 43.1605 36.8025 43.6401C36.8025 44.3594 36.323 45.0797 36.0832 45.0797C34.8844 45.5571 31.289 46.757 30.0892 46.9968C29.3699 47.2387 29.1301 47.4763 28.8903 47.716L27.6915 50.5932C32.4857 50.5932 34.8844 53.4704 39.9194 54.4294H42.3171C47.3521 53.7101 50.9475 50.5932 54.3052 50.5932L53.1085 47.7118Z" fill="#FFFF00"/>
</g>
<defs>
<clipPath id="clip0_21_195">
<rect width="82" height="82" fill="white"/>
</clipPath>
</defs>
</svg>
