<svg width="82" height="82" viewBox="0 0 82 82" fill="none" xmlns="http://www.w3.org/2000/svg">
<path d="M56.7518 44.8898L56.8354 44.9734L56.9475 45.0107L61.6117 46.5617L58.7772 49.3963L53.7497 47.7126L48.754 42.7169L50.139 41.3318L52.2763 40.4143L56.7518 44.8898Z" stroke="#FFFF00"/>
<mask id="path-2-inside-1_20_104" fill="white">
<path d="M33.9531 74.9531L39.0781 57.0156H67.2656L62.1406 74.9531"/>
</mask>
<path d="M39.0781 57.0156V56.0156H38.3238L38.1166 56.7409L39.0781 57.0156ZM67.2656 57.0156L68.2271 57.2903L68.5914 56.0156H67.2656V57.0156ZM34.9146 75.2278L40.0396 57.2903L38.1166 56.7409L32.9916 74.6784L34.9146 75.2278ZM39.0781 58.0156H67.2656V56.0156H39.0781V58.0156ZM66.3041 56.7409L61.1791 74.6784L63.1021 75.2278L68.2271 57.2903L66.3041 56.7409Z" fill="#FFFF00" mask="url(#path-2-inside-1_20_104)"/>
<mask id="path-4-inside-2_20_104" fill="white">
<path d="M39.0781 40.0134C39.4497 40.2312 39.8981 40.3594 40.3594 40.3594C41.7687 40.3594 42.9219 39.2063 42.9219 37.7969C42.9219 36.3875 41.7687 35.2344 40.3594 35.2344C39.8212 35.2344 39.3216 35.4009 38.8987 35.6956"/>
</mask>
<path d="M38.5724 40.8761C39.0945 41.1822 39.717 41.3594 40.3594 41.3594V39.3594C40.0792 39.3594 39.8049 39.2803 39.5838 39.1507L38.5724 40.8761ZM40.3594 41.3594C42.321 41.3594 43.9219 39.7585 43.9219 37.7969H41.9219C41.9219 38.654 41.2165 39.3594 40.3594 39.3594V41.3594ZM43.9219 37.7969C43.9219 35.8352 42.321 34.2344 40.3594 34.2344V36.2344C41.2165 36.2344 41.9219 36.9398 41.9219 37.7969H43.9219ZM40.3594 34.2344C39.609 34.2344 38.911 34.4681 38.327 34.8752L39.4705 36.516C39.7321 36.3337 40.0335 36.2344 40.3594 36.2344V34.2344Z" fill="#FFFF00" mask="url(#path-4-inside-2_20_104)"/>
<path d="M32.0412 48.8794H32.0308L31.9362 48.92L28.0941 50.5721C28.0939 50.5723 28.0936 50.5724 28.0933 50.5725C26.9239 51.0701 25.6058 51.0692 24.4516 50.5729L20.6078 48.92L20.6073 48.9198C18.9089 48.1919 17.8097 46.5157 17.8097 44.6644V37.7969C17.8097 33.8321 21.0324 30.6094 24.9972 30.6094H27.5597C31.5245 30.6094 34.7472 33.8321 34.7472 37.7969V44.6644C34.7472 46.4823 33.6873 48.1312 32.0412 48.8794Z" stroke="white"/>
<path d="M62.5956 22.0916C65.3255 24.8214 67.482 27.5823 68.7659 29.829C69.4096 30.9557 69.8193 31.9276 69.9831 32.6862C70.1525 33.4708 70.0315 33.8802 69.8435 34.0682C69.6554 34.2562 69.2461 34.3773 68.4615 34.2078C67.7029 34.044 66.7309 33.6344 65.6043 32.9906C63.3575 31.7067 60.5967 29.5502 57.8669 26.8204C55.137 24.0905 52.9805 21.3297 51.6966 19.0829C51.0528 17.9563 50.6432 16.9843 50.4794 16.2258C50.31 15.4411 50.431 15.0318 50.619 14.8437C50.807 14.6557 51.2164 14.5347 52.001 14.7041C52.7596 14.868 53.7316 15.2776 54.8582 15.9213C57.1049 17.2052 59.8658 19.3617 62.5956 22.0916Z" stroke="#FFFF00"/>
<path d="M52.3906 63.4641C52.5621 63.6079 52.6719 63.8234 52.6719 64.0625C52.6719 64.3016 52.5621 64.5171 52.3906 64.6609V63.4641Z" stroke="white"/>
<mask id="path-9-inside-3_20_104" fill="white">
<path d="M13.4531 40.0134C13.0816 40.2312 12.6331 40.3594 12.1719 40.3594C10.7625 40.3594 9.60938 39.2063 9.60938 37.7969C9.60938 36.3875 10.7625 35.2344 12.1719 35.2344C12.71 35.2344 13.2097 35.4009 13.6325 35.6956"/>
</mask>
<path d="M12.9474 39.1507C12.7263 39.2803 12.452 39.3594 12.1719 39.3594V41.3594C12.8142 41.3594 13.4368 41.1822 13.9588 40.8761L12.9474 39.1507ZM12.1719 39.3594C11.3148 39.3594 10.6094 38.654 10.6094 37.7969H8.60938C8.60938 39.7585 10.2102 41.3594 12.1719 41.3594V39.3594ZM10.6094 37.7969C10.6094 36.9398 11.3148 36.2344 12.1719 36.2344V34.2344C10.2102 34.2344 8.60938 35.8352 8.60938 37.7969H10.6094ZM12.1719 36.2344C12.4978 36.2344 12.7992 36.3337 13.0607 36.516L14.2043 34.8752C13.6202 34.4681 12.9222 34.2344 12.1719 34.2344V36.2344Z" fill="white" mask="url(#path-9-inside-3_20_104)"/>
<path d="M29.6094 53.1719C29.6094 55.0226 28.1164 56.5156 26.2656 56.5156C24.4149 56.5156 22.9219 55.0226 22.9219 53.1719V50.9968L24.0428 51.4783C25.4635 52.0968 27.0678 52.0968 28.4885 51.4783C28.4889 51.4781 28.4893 51.4779 28.4897 51.4777L29.6094 50.9968V53.1719Z" stroke="white"/>
<path d="M39.0781 56.5156H38.701L38.5974 56.8783L33.576 74.4531H6.26562V65.9844C6.26562 59.188 11.7818 53.6719 18.5781 53.6719H21.9502C22.1973 55.8385 24.0317 57.5156 26.2656 57.5156C28.4995 57.5156 30.3339 55.8385 30.581 53.6719H33.9531C36.9374 53.6719 39.6803 54.7403 41.8192 56.5156H39.0781Z" stroke="white"/>
<path d="M24.4844 72.3906V74.4531H20.3594V70.3281H22.4219C23.5551 70.3281 24.4844 71.2574 24.4844 72.3906Z" stroke="white"/>
<path d="M25.7528 72.3906V74.4531H24.2031V72.3906C24.2031 71.4098 23.4027 70.6094 22.4219 70.6094H13.4531C13.0246 70.6094 12.6719 70.2567 12.6719 69.8281V64.7031C12.6719 64.498 12.7544 64.2999 12.9023 64.1417L14.5498 62.4942C14.8542 62.1898 15.3448 62.1898 15.6493 62.4942C15.9537 62.7986 15.9537 63.2892 15.6493 63.5936L14.368 64.8749L14.2216 65.0213V65.2284V68.5469V69.0469H14.7216H22.4091C24.2598 69.0469 25.7528 70.5399 25.7528 72.3906Z" stroke="white"/>
<path d="M3.70312 74.1719H66.7656V75.7344H3.70312V74.1719Z" stroke="white"/>
<path d="M27.5469 30.6094C29.9437 30.6094 32.0683 31.788 33.3711 33.5987C32.8994 33.5056 32.3845 33.4531 31.8134 33.4531C28.8456 33.4531 27.3348 34.8472 25.94 36.1343L25.925 36.1482C24.5474 37.4193 23.2811 38.5781 20.705 38.5781C19.4817 38.5781 18.558 38.317 17.7969 37.9237V37.7969C17.7969 33.8321 21.0196 30.6094 24.9844 30.6094H27.5469Z" stroke="white"/>
<path d="M57.8688 26.8217C56.6528 25.5947 55.5495 24.3691 54.5826 23.1849C56.4462 22.8238 58.4344 23.369 59.878 24.8126C61.3193 26.2539 61.8568 28.2406 61.5027 30.1056C60.3194 29.1392 59.0948 28.0367 57.8688 26.8217Z" stroke="#FFFF00"/>
<path d="M42.705 35.729L49.7411 17.2163C49.7854 17.3464 49.8339 17.4784 49.8861 17.6117C50.2316 18.4948 50.7602 19.4913 51.4386 20.5557C52.7958 22.6853 54.7773 25.1251 57.1741 27.5284L57.175 27.5293C59.5783 29.9261 62.018 31.9075 64.146 33.2648C65.2095 33.9431 66.2047 34.4717 67.0859 34.8172C67.2276 34.8727 67.3677 34.9241 67.5057 34.9708L49.4516 41.9963L42.705 35.729Z" stroke="#FFFF00"/>
<path d="M65.2031 16.5533C66.6432 16.7719 67.7906 17.9193 68.0092 19.3594H66.4127C66.2423 18.7792 65.7833 18.3202 65.2031 18.1498V16.5533Z" stroke="white"/>
<path d="M65.2031 11.4052C69.4754 11.6552 72.9073 15.0871 73.1573 19.3594H71.5915C71.3469 15.9452 68.6173 13.2156 65.2031 12.971V11.4052Z" stroke="white"/>
<path d="M65.2031 6.27467C72.3071 6.53223 78.0303 12.2554 78.2878 19.3594H76.7241C76.4676 13.1247 71.4378 8.09486 65.2031 7.83839V6.27467Z" stroke="white"/>
<path d="M48.1046 44.9374L48.1033 44.9386C47.7989 45.2431 47.3083 45.2431 47.0039 44.9386L42.2571 40.1918C42.9629 39.6324 43.4219 38.7653 43.4219 37.7969C43.4219 36.4804 42.5854 35.3566 41.4154 34.9239L41.5714 34.7679C41.8758 34.4635 42.3664 34.4635 42.6708 34.7679L49.9227 42.0198C50.2239 42.321 50.231 42.8131 49.9208 43.134L48.1046 44.9374Z" stroke="#FFFF00"/>
<path d="M39.5781 41.8712V40.7571C39.8293 40.8236 40.0924 40.8594 40.3594 40.8594C40.704 40.8594 41.035 40.8026 41.3451 40.6941L45.9242 45.2732C44.1092 46.7342 41.436 46.6227 39.752 44.9386C39.2965 44.4831 38.9538 43.954 38.729 43.3936C39.2444 43.0804 39.5781 42.5087 39.5781 41.8712Z" stroke="#FFFF00"/>
<path d="M37.9551 42.6366L35.7344 43.0807V37.7969C35.7344 33.2798 32.064 29.6094 27.5469 29.6094H24.9844C20.4673 29.6094 16.7969 33.2798 16.7969 37.7969V42.4219H14.7344C14.3058 42.4219 13.9531 42.0692 13.9531 41.6406V37.7969C13.9531 31.0005 19.4693 25.4844 26.2656 25.4844C29.6638 25.4844 32.7413 26.8628 34.9705 29.092C37.1997 31.3212 38.5781 34.3987 38.5781 37.7969V41.8713C38.5781 42.2488 38.3102 42.5671 37.9571 42.6362L37.9551 42.6366Z" stroke="white"/>
<path d="M26.7556 45.3846C26.6697 44.9631 26.9437 44.5486 27.3642 44.4626C27.3644 44.4625 27.3646 44.4625 27.3648 44.4625L37.8947 42.3616L38.2969 42.2814V41.8713V38.2069C38.2969 31.83 33.4903 26.2215 27.0935 25.7924L27.0933 25.7924C20.0893 25.3246 14.2344 30.8852 14.2344 37.7969V41.6406V42.1406H14.7344H16.7969V43.7031H14.7344C13.6011 43.7031 12.6719 42.7739 12.6719 41.6406V38.2069C12.6719 31.1156 17.928 24.9183 24.9538 24.2651L24.9547 24.265C33.0373 23.4987 39.8594 29.8627 39.8594 37.7969V41.8713C39.8594 42.8494 39.1698 43.6958 38.1977 43.8924C38.1977 43.8924 38.1976 43.8924 38.1975 43.8924L27.6669 45.9934L27.6649 45.9938C27.2898 46.0702 26.9204 45.8617 26.7829 45.5187L26.7556 45.3846Z" stroke="white"/>
</svg>
