<svg width="82" height="82" viewBox="0 0 82 82" fill="none" xmlns="http://www.w3.org/2000/svg">
<mask id="path-1-inside-1_22_206" fill="white">
<path fill-rule="evenodd" clip-rule="evenodd" d="M20.0729 14.5208C20.0729 9.56752 24.0884 5.55209 29.0417 5.55209H52.1042C57.0575 5.55209 61.0729 9.56752 61.0729 14.5208V21.7076C64.5877 23.2036 67.0521 26.689 67.0521 30.75V38.7297V50.3958C67.0521 54.4568 64.5877 57.9422 61.0729 59.4382V67.4792C61.0729 72.4325 57.0575 76.4479 52.1042 76.4479H29.0417C24.0884 76.4479 20.0729 72.4325 20.0729 67.4792V59.4382C16.5581 57.9422 14.0938 54.4568 14.0938 50.3958V30.75C14.0938 26.689 16.5581 23.2036 20.0729 21.7076V14.5208ZM24.3437 20.9271H41.832H56.8021V14.5208C56.8021 11.9262 54.6988 9.82292 52.1042 9.82292H29.0417C26.447 9.82292 24.3437 11.9262 24.3437 14.5208V20.9271ZM24.3437 60.2187V67.4792C24.3437 70.0738 26.447 72.1771 29.0417 72.1771H52.1042C54.6988 72.1771 56.8021 70.0738 56.8021 67.4792V60.2187H24.3437ZM30.3229 17.0833C30.3229 15.904 31.279 14.9479 32.4583 14.9479H49.5417C50.721 14.9479 51.6771 15.904 51.6771 17.0833C51.6771 18.2627 50.721 19.2188 49.5417 19.2188H32.4583C31.279 19.2188 30.3229 18.2627 30.3229 17.0833ZM43.1334 67.0498C44.3124 65.8708 44.3124 63.9592 43.1334 62.7802C41.9544 61.6013 40.0428 61.6013 38.8639 62.7802C37.6849 63.9592 37.6849 65.8708 38.8639 67.0498C40.0428 68.2287 41.9544 68.2287 43.1334 67.0498ZM47.1775 35.2192C48.0114 34.3852 49.3636 34.3852 50.1975 35.2192L53.2604 38.282C54.7614 39.7832 54.7614 42.2168 53.2604 43.718L50.1975 46.7808C49.3636 47.6148 48.0114 47.6148 47.1775 46.7808C46.3436 45.9469 46.3436 44.5948 47.1775 43.7608L49.9384 41L47.1775 38.2392C46.3436 37.4052 46.3436 36.0531 47.1775 35.2192ZM27.8855 38.282L30.9483 35.2192C31.7823 34.3852 33.1344 34.3852 33.9683 35.2192C34.8023 36.0531 34.8023 37.4052 33.9683 38.2392L31.2074 41L33.9683 43.7608C34.8023 44.5948 34.8023 45.9469 33.9683 46.7808C33.1344 47.6148 31.7823 47.6148 30.9483 46.7808L27.8855 43.718C26.3844 42.2168 26.3844 39.7832 27.8855 38.282ZM43.6633 34.8192C44.7182 35.3466 45.1457 36.6293 44.6183 37.6841L40.3475 46.2258C39.8201 47.2807 38.5374 47.7082 37.4825 47.1808C36.4276 46.6534 36.0001 45.3707 36.5275 44.3159L40.7983 35.7742C41.3258 34.7193 42.6085 34.2918 43.6633 34.8192ZM18.3646 30.75C18.3646 27.6837 20.8504 25.1979 23.9167 25.1979H41.832H57.2292C60.2955 25.1979 62.7812 27.6836 62.7812 30.75V38.7297V50.3958C62.7812 53.4622 60.2955 55.9479 57.2292 55.9479H23.9167C20.8503 55.9479 18.3646 53.4622 18.3646 50.3958V30.75Z"/>
</mask>
<path d="M61.0729 21.7076H53.0729V26.9971L57.9399 29.0686L61.0729 21.7076ZM61.0729 59.4382L57.9399 52.0772L53.0729 54.1487V59.4382H61.0729ZM20.0729 59.4382H28.0729V54.1487L23.2059 52.0772L20.0729 59.4382ZM20.0729 21.7076L23.2059 29.0686L28.0729 26.9971V21.7076H20.0729ZM24.3437 20.9271H16.3437V28.9271H24.3437V20.9271ZM56.8021 20.9271V28.9271H64.8021V20.9271H56.8021ZM24.3437 60.2187V52.2187H16.3437V60.2187H24.3437ZM56.8021 60.2187H64.8021V52.2187H56.8021V60.2187ZM43.1334 67.0498L48.79 72.7068L48.7902 72.7066L43.1334 67.0498ZM43.1334 62.7802L48.7902 57.1234L48.79 57.1232L43.1334 62.7802ZM53.2604 38.282L58.9174 32.6253L58.9172 32.6252L53.2604 38.282ZM53.2604 43.718L58.9172 49.3748L58.9174 49.3747L53.2604 43.718ZM47.1775 43.7608L41.5207 38.1039L41.5206 38.104L47.1775 43.7608ZM49.9384 41L55.5952 46.6569L61.2523 41L55.5952 35.3431L49.9384 41ZM47.1775 38.2392L41.5206 43.896L41.5207 43.8961L47.1775 38.2392ZM27.8855 38.282L22.2286 32.6252L22.2285 32.6253L27.8855 38.282ZM33.9683 38.2392L39.6251 43.8961L39.6252 43.896L33.9683 38.2392ZM31.2074 41L25.5506 35.3431L19.8935 41L25.5506 46.6569L31.2074 41ZM33.9683 43.7608L39.6252 38.104L39.6251 38.1039L33.9683 43.7608ZM27.8855 43.718L22.2285 49.3747L22.2286 49.3748L27.8855 43.718ZM43.6633 34.8192L47.241 27.6637L47.2408 27.6636L43.6633 34.8192ZM44.6183 37.6841L51.7738 41.2618L51.7739 41.2616L44.6183 37.6841ZM40.3475 46.2258L47.5029 49.8035L47.5029 49.8035L40.3475 46.2258ZM37.4825 47.1808L33.9048 54.3363L33.9051 54.3364L37.4825 47.1808ZM36.5275 44.3159L29.3721 40.7382L29.372 40.7384L36.5275 44.3159ZM40.7983 35.7742L47.9537 39.3519L47.9537 39.3519L40.7983 35.7742ZM28.0729 14.5208C28.0729 13.9858 28.5066 13.5521 29.0417 13.5521V-2.44791C19.6701 -2.44791 12.0729 5.14925 12.0729 14.5208H28.0729ZM29.0417 13.5521H52.1042V-2.44791H29.0417V13.5521ZM52.1042 13.5521C52.6392 13.5521 53.0729 13.9858 53.0729 14.5208H69.0729C69.0729 5.14924 61.4758 -2.44791 52.1042 -2.44791V13.5521ZM53.0729 14.5208V21.7076H69.0729V14.5208H53.0729ZM57.9399 29.0686C58.6083 29.3531 59.0521 30.0089 59.0521 30.75H75.0521C75.0521 23.3691 70.5672 17.0541 64.2059 14.3466L57.9399 29.0686ZM59.0521 30.75V38.7297H75.0521V30.75H59.0521ZM59.0521 38.7297V50.3958H75.0521V38.7297H59.0521ZM59.0521 50.3958C59.0521 51.1369 58.6083 51.7927 57.9399 52.0772L64.2059 66.7992C70.5672 64.0917 75.0521 57.7767 75.0521 50.3958H59.0521ZM53.0729 59.4382V67.4792H69.0729V59.4382H53.0729ZM53.0729 67.4792C53.0729 68.0142 52.6392 68.4479 52.1042 68.4479V84.4479C61.4757 84.4479 69.0729 76.8508 69.0729 67.4792H53.0729ZM52.1042 68.4479H29.0417V84.4479H52.1042V68.4479ZM29.0417 68.4479C28.5066 68.4479 28.0729 68.0142 28.0729 67.4792H12.0729C12.0729 76.8508 19.6701 84.4479 29.0417 84.4479V68.4479ZM28.0729 67.4792V59.4382H12.0729V67.4792H28.0729ZM23.2059 52.0772C22.5375 51.7927 22.0938 51.1369 22.0938 50.3958H6.09375C6.09375 57.7767 10.5787 64.0917 16.9399 66.7992L23.2059 52.0772ZM22.0938 50.3958V30.75H6.09375V50.3958H22.0938ZM22.0938 30.75C22.0938 30.0089 22.5375 29.3531 23.2059 29.0686L16.9399 14.3466C10.5787 17.0541 6.09375 23.3691 6.09375 30.75H22.0938ZM28.0729 21.7076V14.5208H12.0729V21.7076H28.0729ZM24.3437 28.9271H41.832V12.9271H24.3437V28.9271ZM41.832 28.9271H56.8021V12.9271H41.832V28.9271ZM64.8021 20.9271V14.5208H48.8021V20.9271H64.8021ZM64.8021 14.5208C64.8021 7.50794 59.1171 1.82292 52.1042 1.82292V17.8229C50.2805 17.8229 48.8021 16.3445 48.8021 14.5208H64.8021ZM52.1042 1.82292H29.0417V17.8229H52.1042V1.82292ZM29.0417 1.82292C22.0288 1.82292 16.3437 7.50794 16.3437 14.5208H32.3437C32.3437 16.3445 30.8653 17.8229 29.0417 17.8229V1.82292ZM16.3437 14.5208V20.9271H32.3437V14.5208H16.3437ZM16.3437 60.2187V67.4792H32.3437V60.2187H16.3437ZM16.3437 67.4792C16.3437 74.4921 22.0288 80.1771 29.0417 80.1771V64.1771C30.8653 64.1771 32.3437 65.6555 32.3437 67.4792H16.3437ZM29.0417 80.1771H52.1042V64.1771H29.0417V80.1771ZM52.1042 80.1771C59.117 80.1771 64.8021 74.4921 64.8021 67.4792H48.8021C48.8021 65.6555 50.2805 64.1771 52.1042 64.1771V80.1771ZM64.8021 67.4792V60.2187H48.8021V67.4792H64.8021ZM56.8021 52.2187H24.3437V68.2187H56.8021V52.2187ZM38.3229 17.0833C38.3229 20.3223 35.6973 22.9479 32.4583 22.9479V6.94792C26.8607 6.94792 22.3229 11.4857 22.3229 17.0833H38.3229ZM32.4583 22.9479H49.5417V6.94792H32.4583V22.9479ZM49.5417 22.9479C46.3027 22.9479 43.6771 20.3223 43.6771 17.0833H59.6771C59.6771 11.4857 55.1393 6.94792 49.5417 6.94792V22.9479ZM43.6771 17.0833C43.6771 13.8444 46.3027 11.2188 49.5417 11.2188V27.2188C55.1393 27.2188 59.6771 22.681 59.6771 17.0833H43.6771ZM49.5417 11.2188H32.4583V27.2188H49.5417V11.2188ZM32.4583 11.2188C35.6973 11.2188 38.3229 13.8444 38.3229 17.0833H22.3229C22.3229 22.681 26.8607 27.2188 32.4583 27.2188V11.2188ZM48.7902 72.7066C53.0934 68.4034 53.0934 61.4266 48.7902 57.1234L37.4765 68.4371C35.5313 66.4919 35.5313 63.3381 37.4765 61.3929L48.7902 72.7066ZM48.79 57.1232C44.487 52.8204 37.5103 52.8201 33.207 57.1234L44.5208 68.4371C42.5754 70.3825 39.4217 70.3822 37.4767 68.4373L48.79 57.1232ZM33.207 57.1234C28.9038 61.4266 28.9038 68.4034 33.207 72.7066L44.5208 61.3929C46.4659 63.3381 46.4659 66.4919 44.5208 68.4371L33.207 57.1234ZM33.207 72.7066C37.5103 77.0099 44.487 77.0096 48.79 72.7068L37.4767 61.3927C39.4217 59.4478 42.5754 59.4475 44.5208 61.3929L33.207 72.7066ZM52.8344 40.876C50.5441 43.1663 46.8309 43.1663 44.5406 40.876L55.8543 29.5623C51.8962 25.6042 45.4788 25.6042 41.5206 29.5623L52.8344 40.876ZM44.5406 40.876L47.6035 43.9389L58.9172 32.6252L55.8543 29.5623L44.5406 40.876ZM47.6033 43.9387C45.9804 42.3157 45.9804 39.6843 47.6033 38.0613L58.9174 49.3747C63.5424 44.7494 63.5424 37.2506 58.9174 32.6253L47.6033 43.9387ZM47.6035 38.0611L44.5406 41.124L55.8543 52.4377L58.9172 49.3748L47.6035 38.0611ZM44.5406 41.124C46.8309 38.8337 50.5441 38.8337 52.8344 41.124L41.5206 52.4377C45.4788 56.3958 51.8962 56.3958 55.8543 52.4377L44.5406 41.124ZM52.8344 41.124C55.1246 43.4142 55.1246 47.1274 52.8344 49.4177L41.5206 38.104C37.5625 42.0621 37.5625 48.4796 41.5206 52.4377L52.8344 41.124ZM52.8343 49.4178L55.5952 46.6569L44.2817 35.3431L41.5207 38.1039L52.8343 49.4178ZM55.5952 35.3431L52.8343 32.5822L41.5207 43.8961L44.2817 46.6569L55.5952 35.3431ZM52.8344 32.5823C55.1246 34.8726 55.1246 38.5858 52.8344 40.876L41.5206 29.5623C37.5625 33.5204 37.5625 39.9379 41.5206 43.896L52.8344 32.5823ZM33.5423 43.9389L36.6052 40.876L25.2915 29.5623L22.2286 32.6252L33.5423 43.9389ZM36.6052 40.876C34.3149 43.1663 30.6017 43.1663 28.3115 40.876L39.6252 29.5623C35.6671 25.6042 29.2496 25.6042 25.2915 29.5623L36.6052 40.876ZM28.3115 40.876C26.0212 38.5858 26.0212 34.8726 28.3115 32.5823L39.6252 43.896C43.5833 39.9379 43.5833 33.5204 39.6252 29.5623L28.3115 40.876ZM28.3116 32.5822L25.5506 35.3431L36.8642 46.6569L39.6251 43.8961L28.3116 32.5822ZM25.5506 46.6569L28.3116 49.4178L39.6251 38.1039L36.8642 35.3431L25.5506 46.6569ZM28.3115 49.4177C26.0212 47.1274 26.0212 43.4142 28.3115 41.124L39.6252 52.4377C43.5833 48.4796 43.5833 42.0621 39.6252 38.104L28.3115 49.4177ZM28.3115 41.124C30.6017 38.8337 34.3149 38.8337 36.6052 41.124L25.2915 52.4377C29.2496 56.3958 35.6671 56.3958 39.6252 52.4377L28.3115 41.124ZM36.6052 41.124L33.5423 38.0611L22.2286 49.3748L25.2915 52.4377L36.6052 41.124ZM33.5425 38.0613C35.1654 39.6843 35.1654 42.3157 33.5425 43.9387L22.2285 32.6253C17.6034 37.2506 17.6034 44.7494 22.2285 49.3747L33.5425 38.0613ZM40.0856 41.9746C37.1885 40.5261 36.0145 37.0034 37.4628 34.1066L51.7739 41.2616C54.2769 36.2552 52.2478 30.1672 47.241 27.6637L40.0856 41.9746ZM37.4629 34.1064L33.1921 42.6481L47.5029 49.8035L51.7738 41.2618L37.4629 34.1064ZM33.1921 42.6481C34.6406 39.751 38.1632 38.577 41.06 40.0253L33.9051 54.3364C38.9115 56.8394 44.9995 54.8104 47.5029 49.8035L33.1921 42.6481ZM41.0602 40.0254C43.9573 41.4739 45.1313 44.9966 43.683 47.8934L29.372 40.7384C26.869 45.7448 28.898 51.8328 33.9048 54.3363L41.0602 40.0254ZM43.6829 47.8936L47.9537 39.3519L33.6429 32.1965L29.3721 40.7382L43.6829 47.8936ZM47.9537 39.3519C46.5052 42.249 42.9826 43.423 40.0858 41.9747L47.2408 27.6636C42.2344 25.1606 36.1463 27.1896 33.6429 32.1965L47.9537 39.3519ZM26.3646 30.75C26.3646 32.102 25.2687 33.1979 23.9167 33.1979V17.1979C16.4321 17.1979 10.3646 23.2654 10.3646 30.75H26.3646ZM23.9167 33.1979H41.832V17.1979H23.9167V33.1979ZM41.832 33.1979H57.2292V17.1979H41.832V33.1979ZM57.2292 33.1979C55.8773 33.1979 54.7812 32.1019 54.7812 30.75H70.7812C70.7812 23.2654 64.7138 17.1979 57.2292 17.1979V33.1979ZM54.7812 30.75V38.7297H70.7812V30.75H54.7812ZM54.7812 38.7297V50.3958H70.7812V38.7297H54.7812ZM54.7812 50.3958C54.7812 49.0439 55.8772 47.9479 57.2292 47.9479V63.9479C64.7138 63.9479 70.7812 57.8805 70.7812 50.3958H54.7812ZM57.2292 47.9479H23.9167V63.9479H57.2292V47.9479ZM23.9167 47.9479C25.2686 47.9479 26.3646 49.0439 26.3646 50.3958H10.3646C10.3646 57.8805 16.432 63.9479 23.9167 63.9479V47.9479ZM26.3646 50.3958V30.75H10.3646V50.3958H26.3646Z" fill="#FFFF00" mask="url(#path-1-inside-1_22_206)"/>
</svg>
