<svg width="60" height="60" viewBox="0 0 60 60" fill="none" xmlns="http://www.w3.org/2000/svg">
<g clip-path="url(#clip0_24_99)">
<path d="M30 0C13.4326 0 0 13.4326 0 30C0 46.5673 13.4326 60 30 60C46.5673 60 60 46.5673 60 30C60 13.4326 46.5673 0 30 0ZM41.1401 30.3396L24.2651 40.4113C24.1443 40.4846 23.9904 40.4883 23.8659 40.4149C23.7451 40.3453 23.6682 40.2155 23.6682 40.0707V29.9989V19.9271C23.6682 19.7844 23.7451 19.6526 23.8659 19.5829C23.9904 19.5115 24.1443 19.5151 24.2651 19.5865L41.1401 29.6602C41.2609 29.7288 41.3324 29.8615 41.3324 29.9988C41.3324 30.1391 41.261 30.2692 41.1401 30.3396Z" fill="#FFFF00"/>
</g>
<defs>
<clipPath id="clip0_24_99">
<rect width="60" height="60" fill="white"/>
</clipPath>
</defs>
</svg>
