<svg width="82" height="72" viewBox="0 0 82 72" fill="none" xmlns="http://www.w3.org/2000/svg">
<path d="M13.0431 13.457C16.7597 13.457 19.7708 10.4433 19.7708 6.72912C19.7708 3.0111 16.7597 0 13.0431 0C9.3249 0 6.31396 3.0111 6.31396 6.72912C6.31396 10.4433 9.3249 13.457 13.0431 13.457Z" fill="white"/>
<path d="M35.9016 33.9674C35.9016 33.8303 35.8788 33.6994 35.8614 33.5673L45.9109 26.2736C46.5422 25.8145 46.6844 24.9265 46.2253 24.2938C45.9588 23.9278 45.5299 23.7089 45.0769 23.7089C44.7763 23.7089 44.4896 23.8032 44.2456 23.9794L34.1759 31.2883C33.801 31.1172 33.3897 31.0154 32.9507 31.0154H27.4769L26.1485 23.4525C25.419 19.639 23.8884 16.6442 20.6283 16.6442H6.8068C3.54682 16.6442 0 20.191 0 23.4525V46.067C0 47.6971 1.32065 49.019 2.95072 49.019C3.75326 49.019 2.95072 49.019 5.01097 49.019L6.13286 68.3057C6.13286 70.0401 7.54032 71.4463 9.27481 71.4463C10.5753 71.4463 13.8229 71.4463 15.5574 71.4463C17.2919 71.4463 18.6981 70.0401 18.6981 68.3057L20.1722 30.1036H20.2463L21.0903 33.8303C21.3696 35.6075 22.899 36.9181 24.6977 36.9181H32.9512C34.5809 36.9181 35.9016 35.5974 35.9016 33.9674ZM10.8948 29.7751V19.0249H14.7587V29.7751L12.706 32.1964L10.8948 29.7751Z" fill="white"/>
<path d="M30.4819 2.32578V26.8936H34.3459V6.18954H78.1361V43.1113H34.3459V38.4639H30.4819V46.9751H82V2.32578H30.4819Z" fill="#FFFF00"/>
<path d="M61.8176 56.5612C61.8176 53.5501 59.3776 51.1113 56.3678 51.1113C53.3567 51.1113 50.9167 53.5501 50.9167 56.5612C50.9167 59.5698 53.3567 62.011 56.3678 62.011C59.3775 62.011 61.8176 59.5696 61.8176 56.5612Z" fill="white"/>
<path d="M56.3677 64.9304C52.4824 64.9304 49.1821 67.4799 47.9143 71.0482H64.8212C63.5534 67.4797 60.2529 64.9304 56.3677 64.9304Z" fill="white"/>
</svg>
