<svg width="42" height="57" viewBox="0 0 42 57" fill="none" xmlns="http://www.w3.org/2000/svg">
<path d="M41.3112 28.1799C41.3112 38.8674 33.0612 47.8674 22.5612 48.8049V54.4299C22.5612 55.3674 21.6237 56.3049 20.6862 56.3049C19.7487 56.3049 18.8112 55.3674 18.8112 54.4299V48.8049C8.3112 47.8674 0.0611954 38.8674 0.0611954 28.1799C0.0611954 27.2424 0.998695 26.3049 1.9362 26.3049C2.8737 26.3049 3.8112 27.2424 3.8112 28.1799C3.8112 37.5549 11.3112 45.0549 20.6862 45.0549C30.0612 45.0549 37.5612 37.5549 37.5612 28.1799C37.5612 27.2424 38.4987 26.3049 39.4362 26.3049C40.3737 26.3049 41.3112 27.2424 41.3112 28.1799Z" fill="white"/>
<path d="M20.6862 0.0549011C13.3737 0.0549011 7.5612 5.8674 7.5612 13.1799V28.1799C7.5612 35.4924 13.3737 41.3049 20.6862 41.3049C27.9987 41.3049 33.8112 35.4924 33.8112 28.1799V13.1799C33.8112 5.8674 27.9987 0.0549011 20.6862 0.0549011Z" fill="#FFFF00"/>
</svg>
