<svg width="60" height="60" viewBox="0 0 60 60" fill="none" xmlns="http://www.w3.org/2000/svg">
<path d="M0.5 7.1377V2.7875H0.718717L0.53681 2.15025C0.513045 2.067 0.5 1.97311 0.5 1.87676C0.5 1.1164 1.11647 0.5 1.87676 0.5H58.1232C58.8835 0.5 59.5 1.1164 59.5 1.87676V49.0329H0.528008V7.6377V7.1377H0.5Z" stroke="white"/>
<path opacity="0.06" d="M1.58621 7.84509H58.4138V9.27826H1.58621V7.84509Z" fill="#0D0D0D" stroke="white"/>
<path d="M31.8437 21.6071H28.3754V14.0903H53.6872V20.3616H49.3063H49.1113L48.9678 20.4936L44.4536 24.646L36.8353 17.6396L36.4969 17.3283L36.1585 17.6395L31.8437 21.6071Z" fill="white" stroke="white"/>
<path d="M49.5013 21.3616H53.6872V28.4674H28.3754V22.607H32.0386H32.2335L32.377 22.4751L36.4969 18.6868L44.1152 25.6934L44.4537 26.0047L44.7922 25.6933L49.5013 21.3616Z" fill="#FFFF00" stroke="white"/>
<mask id="path-5-inside-1_20_138" fill="white">
<path d="M54.1872 20.4334V21.3676H49.5416L44.4636 26.0244L36.4835 18.7068L32.2226 22.6131H27.8754V21.679H31.8L36.4835 17.3864L44.4636 24.7041L49.119 20.4334H54.1872Z"/>
</mask>
<path d="M54.1872 20.4334V21.3676H49.5416L44.4636 26.0244L36.4835 18.7068L32.2226 22.6131H27.8754V21.679H31.8L36.4835 17.3864L44.4636 24.7041L49.119 20.4334H54.1872Z" fill="#F9F8C9"/>
<path d="M54.1872 20.4334H55.1872V19.4334H54.1872V20.4334ZM54.1872 21.3676V22.3676H55.1872V21.3676H54.1872ZM49.5416 21.3676V20.3676H49.1525L48.8657 20.6306L49.5416 21.3676ZM44.4636 26.0244L43.7878 26.7615L44.4637 27.3812L45.1395 26.7614L44.4636 26.0244ZM36.4835 18.7068L37.1594 17.9697L36.4836 17.3501L35.8078 17.9697L36.4835 18.7068ZM32.2226 22.6131V23.6131H32.6116L32.8984 23.3502L32.2226 22.6131ZM27.8754 22.6131H26.8754V23.6131H27.8754V22.6131ZM27.8754 21.679V20.679H26.8754V21.679H27.8754ZM31.8 21.679V22.679H32.1889L32.4757 22.4162L31.8 21.679ZM36.4835 17.3864L37.1594 16.6494L36.4837 16.0298L35.8079 16.6492L36.4835 17.3864ZM44.4636 24.7041L43.7878 25.4411L44.4638 26.061L45.1396 25.441L44.4636 24.7041ZM49.119 20.4334V19.4334H48.7298L48.443 19.6965L49.119 20.4334ZM53.1872 20.4334V21.3676H55.1872V20.4334H53.1872ZM54.1872 20.3676H49.5416V22.3676H54.1872V20.3676ZM48.8657 20.6306L43.7878 25.2874L45.1395 26.7614L50.2175 22.1046L48.8657 20.6306ZM45.1395 25.2874L37.1594 17.9697L35.8077 19.4438L43.7878 26.7615L45.1395 25.2874ZM35.8078 17.9697L31.5468 21.876L32.8984 23.3502L37.1593 19.4439L35.8078 17.9697ZM32.2226 21.6131H27.8754V23.6131H32.2226V21.6131ZM28.8754 22.6131V21.679H26.8754V22.6131H28.8754ZM27.8754 22.679H31.8V20.679H27.8754V22.679ZM32.4757 22.4162L37.1592 18.1236L35.8079 16.6492L31.1243 20.9418L32.4757 22.4162ZM35.8077 18.1235L43.7878 25.4411L45.1395 23.967L37.1594 16.6494L35.8077 18.1235ZM45.1396 25.441L49.795 21.1703L48.443 19.6965L43.7876 23.9672L45.1396 25.441ZM49.119 21.4334H54.1872V19.4334H49.119V21.4334Z" fill="white" mask="url(#path-5-inside-1_20_138)"/>
<path d="M37.0495 18.3841C37.0495 18.6021 36.8651 18.799 36.6125 18.799C36.36 18.799 36.1756 18.6021 36.1756 18.3841C36.1756 18.1661 36.36 17.9692 36.6125 17.9692C36.8651 17.9692 37.0495 18.1661 37.0495 18.3841Z" fill="#FEFDF0" stroke="white"/>
<path d="M49.7432 20.8616C49.7432 21.0796 49.5589 21.2765 49.3063 21.2765C49.0537 21.2765 48.8694 21.0796 48.8694 20.8616C48.8694 20.6436 49.0537 20.4467 49.3063 20.4467C49.5589 20.4467 49.7432 20.6436 49.7432 20.8616Z" fill="#FEFDF0" stroke="white"/>
<path d="M44.8804 25.2907C44.8804 25.5087 44.6961 25.7056 44.4435 25.7056C44.1909 25.7056 44.0066 25.5087 44.0066 25.2907C44.0066 25.0727 44.1909 24.8758 44.4435 24.8758C44.6961 24.8758 44.8804 25.0727 44.8804 25.2907Z" fill="#FEFDF0" stroke="white"/>
<path d="M32.5748 21.8536C32.5748 22.0716 32.3904 22.2685 32.1379 22.2685C31.8853 22.2685 31.7009 22.0716 31.7009 21.8536C31.7009 21.6356 31.8853 21.4387 32.1379 21.4387C32.3904 21.4387 32.5748 21.6356 32.5748 21.8536Z" fill="#FEFDF0" stroke="white"/>
<path d="M15.6667 3.8155C15.6667 4.40561 15.2246 4.82991 14.7439 4.82991C14.2632 4.82991 13.8212 4.40561 13.8212 3.8155C13.8212 3.22539 14.2632 2.80109 14.7439 2.80109C15.2246 2.80109 15.6667 3.22539 15.6667 3.8155Z" fill="#231F20" stroke="white"/>
<path d="M10.4911 3.8155C10.4911 4.40561 10.049 4.82991 9.56836 4.82991C9.08767 4.82991 8.64558 4.40561 8.64558 3.8155C8.64558 3.22539 9.08767 2.80109 9.56836 2.80109C10.049 2.80109 10.4911 3.22539 10.4911 3.8155Z" fill="#F4DB6D" stroke="white"/>
<path d="M5.31555 3.8155C5.31555 4.40561 4.87347 4.82991 4.39277 4.82991C3.91208 4.82991 3.47 4.40561 3.47 3.8155C3.47 3.22539 3.91208 2.80109 4.39277 2.80109C4.87347 2.80109 5.31555 3.22539 5.31555 3.8155Z" fill="#E06276" stroke="white"/>
<path opacity="0.5" d="M6.79285 36.3087H14.7764V42.8094H6.79285V36.3087Z" fill="#FFFF00" stroke="white"/>
<g opacity="0.5">
<path d="M17.2036 42.2525H22.2068V42.2856H17.2036V42.2525Z" fill="#FFFF00" stroke="white"/>
<path d="M17.2036 36.6133H28.6037V36.6933H17.2036V36.6133Z" fill="#FFFF00" stroke="white"/>
<path d="M17.2036 39.4211H28.6037V39.5011H17.2036V39.4211Z" fill="#FFFF00" stroke="white"/>
</g>
<path opacity="0.5" d="M32.348 36.3087H40.3316V42.8094H32.348V36.3087Z" fill="#FFFF00" stroke="white"/>
<g opacity="0.5">
<path d="M42.7586 42.2525H47.7619V42.2856H42.7586V42.2525Z" fill="#FFFF00" stroke="white"/>
<path d="M42.7586 36.6133H54.1588V36.6933H42.7586V36.6133Z" fill="#FFFF00" stroke="white"/>
<path d="M42.7586 39.4211H54.1588V39.5011H42.7586V39.4211Z" fill="#FFFF00" stroke="white"/>
</g>
<path d="M23.6768 20.1594L23.6767 20.1594C23.306 18.5742 22.5363 17.1078 21.4524 15.8994L23.6768 20.1594ZM23.6768 20.1594C23.9948 21.5186 24.0214 22.9644 23.7048 24.4082L15.0825 22.0507L8.06757 14.964M23.6768 20.1594L8.06757 14.964M8.06757 14.964C9.27732 13.949 10.7255 13.2398 12.2801 12.9094C13.7369 12.5998 15.2862 12.6213 16.8224 13.0413C16.9946 13.0884 17.1652 13.141 17.3355 13.1978L17.3357 13.1979C18.9702 13.7425 20.3682 14.6909 21.4523 15.8994L8.06757 14.964Z" fill="#F29640" stroke="white"/>
<path d="M21.6006 28.6358L15.7859 22.7616L23.7804 20.6631C24.0236 22.0278 23.9754 23.4667 23.5851 24.894C23.1948 26.3213 22.5043 27.5847 21.6006 28.6358Z" fill="#E8EA76" stroke="white"/>
<path d="M7.78965 29.4898L7.77461 29.4761L7.76733 29.4705L7.76331 29.4666L7.76338 29.4665L7.75549 29.4593C6.45728 28.2669 5.50968 26.7404 5.01539 25.0564C4.52982 23.3998 4.48076 21.5927 4.96976 19.8043C5.41296 18.1834 6.24448 16.7742 7.33507 15.6465L14.2629 22.6445L11.7942 31.6735C11.7736 31.668 11.753 31.6625 11.7325 31.6569C10.2119 31.2411 8.87869 30.4827 7.78965 29.4898Z" fill="#6992A1" stroke="white"/>
<path d="M8.18791 29.8336L14.8362 23.2233L20.91 29.359C19.8573 30.3522 18.5921 31.0968 17.2148 31.538L17.2068 31.5405L17.1989 31.5433C17.1989 31.5433 17.1981 31.5436 17.1961 31.5443L17.1875 31.5472L17.1864 31.5475C17.1816 31.5491 17.1738 31.5517 17.165 31.5548C15.6193 32.0411 13.9352 32.1456 12.2541 31.7834L12.1488 32.2722M8.18791 29.8336L11.6006 32.1393C11.7832 32.1891 11.9661 32.2326 12.1488 32.2722M8.18791 29.8336C9.19802 30.6581 10.3925 31.2906 11.7325 31.657C11.9046 31.7039 12.0786 31.7453 12.2548 31.7835L12.1488 32.2722M8.18791 29.8336L17.3229 32.0292C15.6952 32.5429 13.9202 32.6539 12.1488 32.2722" fill="#7BCAD4" stroke="white"/>
<path d="M50.8307 30.6136H53.6871V31.9941H50.8307V30.6136Z" fill="#82CCD3" stroke="white"/>
<path d="M45.8804 30.6136H48.7368V31.9941H45.8804V30.6136Z" fill="#E4E78E" stroke="white"/>
<path d="M40.9301 30.6136H43.7866V31.9941H40.9301V30.6136Z" fill="#E5A871" stroke="white"/>
<path d="M35.9798 30.6136H38.8362V31.9941H35.9798V30.6136Z" fill="#6992A1" stroke="white"/>
</svg>
