<svg width="60" height="60" viewBox="0 0 60 60" fill="none" xmlns="http://www.w3.org/2000/svg">
<path d="M30 1.875C14.4375 1.875 1.875 14.4375 1.875 30C1.875 45.5625 14.4375 58.125 30 58.125C45.5625 58.125 58.125 45.5625 58.125 30C58.125 14.4375 45.5625 1.875 30 1.875Z" fill="#FFFF00"/>
<path d="M44.0625 28.3125L30 20.25L21.5625 15.375C21 15 20.25 15 19.6875 15.375C19.125 15.75 18.75 16.125 18.75 16.875V43.125C18.75 43.875 19.125 44.4375 19.6875 44.8125C20.0625 45 20.25 45 20.625 45C21 45 21.1875 45 21.5625 44.8125L30 39.9375L44.0625 31.6875C44.625 31.3125 45 30.75 45 30C45 29.25 44.625 28.6875 44.0625 28.3125Z" fill="white"/>
</svg>
