<svg width="60" height="60" viewBox="0 0 60 60" fill="none" xmlns="http://www.w3.org/2000/svg">
<g clip-path="url(#clip0_14_151)">
<path d="M3.50238 45.1236C2.12844 45.1236 1 43.9953 1 42.621V12.1794C1 10.8054 2.12849 9.67682 3.50238 9.67682H47.312C48.6861 9.67682 49.8145 10.8054 49.8145 12.1794V42.621C49.8145 43.9953 48.6861 45.1236 47.312 45.1236H3.50238Z" stroke="white" stroke-width="2"/>
<path d="M26.4611 39.7068C33.2578 39.7068 38.7677 34.1969 38.7677 27.4002C38.7677 20.6035 33.2578 15.0936 26.4611 15.0936C19.6644 15.0936 14.1545 20.6035 14.1545 27.4002C14.1545 34.1969 19.6644 39.7068 26.4611 39.7068Z" fill="#FFFF00"/>
<path d="M24.7273 33.2057C23.6057 33.9313 22.6882 33.432 22.6882 32.0963V22.7044C22.6882 21.3684 23.6059 20.8691 24.7273 21.5946L31.6599 26.0805C32.7817 26.8062 32.7817 27.994 31.6599 28.7195L24.7273 33.2057Z" fill="black"/>
<path d="M31.5186 44.599L36.7614 49.8419L57.2786 29.3247L52.0357 24.0818L31.5186 44.599Z" fill="#1E252B"/>
<path d="M49.607 33.335C49.1709 33.7709 48.464 33.7709 48.0283 33.335C47.5922 32.8991 47.5922 32.192 48.0283 31.7563L51.0707 28.7137C51.5066 28.2779 52.2136 28.2779 52.6494 28.7137C53.0854 29.1496 53.0854 29.8567 52.6494 30.2926L49.607 33.335Z" fill="#FFFF00"/>
<path d="M30.0398 51.3232L31.5208 44.5992L36.7639 49.8419L30.0398 51.3232Z" fill="black"/>
<path d="M52.0382 24.0816L57.2813 29.3247L60.0002 26.6058L54.7571 21.3628L52.0382 24.0816Z" fill="#FFFF00"/>
</g>
<defs>
<clipPath id="clip0_14_151">
<rect width="60" height="60" fill="white"/>
</clipPath>
</defs>
</svg>
