<svg width="78" height="47" viewBox="0 0 78 47" fill="none" xmlns="http://www.w3.org/2000/svg">
<path d="M69.4668 15.9609H74.4062C75.3145 15.9609 76.0527 16.5 76.0527 17.1621V33.4102C76.0527 34.0723 75.3145 34.6113 74.4062 34.6113H70.2871" fill="#FFFF00"/>
<path d="M74.4004 36.0586H70.2871V33.1582H74.4004C74.4824 33.1582 74.5469 33.1465 74.5938 33.1348V17.4316C74.541 17.4199 74.4766 17.4082 74.4004 17.4082H69.4668V14.5078H74.4062C76.1406 14.5078 77.5 15.6738 77.5 17.1621V33.4102C77.5 34.8984 76.1348 36.0586 74.4004 36.0586Z" fill="white"/>
<path d="M68.0137 41.625H36.9004C35.3008 41.625 34 40.3242 34 38.7246V11.9004C34 10.3008 35.3008 9 36.9004 9H68.0137C69.6133 9 70.9141 10.3008 70.9141 11.9004V38.7246C70.9141 40.3242 69.6133 41.625 68.0137 41.625ZM36.9004 11.9004V38.7246H68.0137V11.9004H36.9004Z" fill="white"/>
<path d="M59.8867 25.875L48.8242 33.7734C48.4961 34.0078 48.0449 33.9316 47.8105 33.6035C47.7227 33.4805 47.6758 33.334 47.6758 33.1816V17.3848C47.6758 16.9863 47.998 16.6582 48.4023 16.6582C48.5547 16.6582 48.7012 16.7051 48.8242 16.793L59.8867 24.6914C60.2148 24.9258 60.291 25.377 60.0566 25.7051C60.0098 25.7695 59.9512 25.8281 59.8867 25.875Z" fill="#FFFF00"/>
<path d="M48.4082 35.3555C48.2852 35.3555 48.168 35.3438 48.0449 35.3262C47.4707 35.2324 46.9668 34.916 46.6328 34.4414C46.3691 34.0723 46.2285 33.6328 46.2285 33.1758V17.3848C46.2285 16.1836 47.2012 15.2109 48.4023 15.2109C48.8594 15.2109 49.293 15.3516 49.668 15.6152L60.7305 23.5137C61.2051 23.8535 61.5156 24.3516 61.6094 24.9258C61.7031 25.5 61.5742 26.0742 61.2344 26.5488C61.0937 26.748 60.9238 26.918 60.7246 27.0586L49.6621 34.957C49.293 35.2207 48.8535 35.3555 48.4082 35.3555ZM49.123 18.7969V31.7754L58.2109 25.2891L49.123 18.7969Z" fill="white"/>
<path d="M18.4689 10.4338L25.3421 10.5739M21.4208 44.5284L21.0842 44.0601C19.8935 42.4031 19.2981 41.5745 18.8817 40.6669C18.5123 39.8616 18.2482 39.012 18.096 38.1393C17.9244 37.1557 17.9452 36.1356 17.9868 34.0955L18.5634 5.7901C18.6022 3.89204 20.1721 2.38479 22.0702 2.4234C23.9681 2.46213 25.4754 4.03211 25.4368 5.93005L24.8494 34.7548C24.8118 36.6057 24.7929 37.5311 24.6155 38.4228C24.4581 39.2144 24.2084 39.9847 23.8714 40.718C23.4918 41.5443 22.964 42.3047 21.9085 43.8255L21.4208 44.5284Z" stroke="#FFFF00" stroke-width="3" stroke-linecap="round" stroke-linejoin="round"/>
</svg>
