<svg width="501" height="501" viewBox="0 0 501 501" fill="none" xmlns="http://www.w3.org/2000/svg">
<g clip-path="url(#clip0_36_5)">
<path fill-rule="evenodd" clip-rule="evenodd" d="M469.245 0.291016V500.291H57.1588V385.912H42.4416C34.3176 385.912 27.7241 379.324 27.7241 371.206C27.7241 363.088 34.3176 356.5 42.4416 356.5H57.1588V268.265H42.4416C34.3176 268.265 27.7241 261.676 27.7241 253.559C27.7241 245.441 34.3176 238.853 42.4416 238.853H57.1588V150.618H42.4416C34.3176 150.618 27.7241 144.029 27.7241 135.912C27.7241 127.794 34.3176 121.206 42.4416 121.206H57.1588V0.291016H469.245ZM333.382 362.194H166.861V391.605H333.382V362.194ZM361.812 306.248H166.861V335.66H361.812V306.248ZM333.382 166.966H166.861V196.377H333.382V166.966ZM361.812 111.02H166.861V140.432H361.812V111.02Z" fill="#5E84A1"/>
</g>
<defs>
<clipPath id="clip0_36_5">
<rect width="500" height="500" fill="white" transform="translate(0.119629 0.291016)"/>
</clipPath>
</defs>
</svg>
