<svg width="501" height="501" viewBox="0 0 501 501" fill="none" xmlns="http://www.w3.org/2000/svg">
<g clip-path="url(#clip0_36_2)">
<path d="M354.286 208.513H145.953V250.179H354.286V208.513ZM395.953 62.6794H375.12V21.0127H333.453V62.6794H166.786V21.0127H125.12V62.6794H104.286C81.1613 62.6794 62.828 81.4294 62.828 104.346L62.6196 396.013C62.6196 418.929 81.1613 437.679 104.286 437.679H395.953C418.87 437.679 437.62 418.929 437.62 396.013V104.346C437.62 81.4294 418.87 62.6794 395.953 62.6794ZM395.953 396.013H104.286V166.846H395.953V396.013ZM291.786 291.846H145.953V333.513H291.786V291.846Z" fill="#5E84A1"/>
</g>
<defs>
<clipPath id="clip0_36_2">
<rect width="500" height="500" fill="white" transform="translate(0.119629 0.179688)"/>
</clipPath>
</defs>
</svg>
