<svg width="376" height="376" viewBox="0 0 376 376" fill="none" xmlns="http://www.w3.org/2000/svg">
<path d="M375.201 21.8011V84.3011H0.200623V21.8011C0.200623 16.2758 2.39556 10.9767 6.30256 7.06971C10.2096 3.16271 15.5086 0.967773 21.034 0.967773H354.367C359.893 0.967773 365.192 3.16271 369.099 7.06971C373.006 10.9767 375.201 16.2758 375.201 21.8011ZM0.200623 125.968H375.201V355.134C375.201 360.66 373.006 365.959 369.099 369.866C365.192 373.773 359.893 375.968 354.367 375.968H21.034C17.6713 375.901 14.3782 374.998 11.4506 373.343L86.1798 298.614L134.471 330.801C138.479 333.474 143.289 334.675 148.083 334.2C152.877 333.725 157.357 331.604 160.763 328.197L202.43 286.53C206.225 282.601 208.325 277.339 208.277 271.876C208.23 266.414 206.039 261.188 202.176 257.326C198.313 253.463 193.088 251.272 187.626 251.225C182.163 251.177 176.901 253.277 172.971 257.072L143.388 286.655L95.0965 254.468C91.0887 251.795 86.2786 250.594 81.485 251.069C76.6914 251.544 72.2104 253.665 68.8048 257.072L0.200623 325.676V125.968ZM235.471 224.03C239.378 227.936 244.676 230.13 250.201 230.13C255.725 230.13 261.023 227.936 264.93 224.03L285.763 203.197C289.558 199.268 291.658 194.005 291.611 188.543C291.563 183.08 289.372 177.855 285.509 173.992C281.647 170.13 276.421 167.939 270.959 167.891C265.497 167.844 260.234 169.944 256.305 173.739L235.471 194.572C231.566 198.479 229.372 203.777 229.372 209.301C229.372 214.825 231.566 220.123 235.471 224.03Z" fill="#5E84A1"/>
</svg>
